<?xml version="1.0" standalone="no"?>
<!DOCTYPE svg PUBLIC "-//W3C//DTD SVG 20010904//EN"
 "http://www.w3.org/TR/2001/REC-SVG-20010904/DTD/svg10.dtd">
<svg version="1.0" xmlns="http://www.w3.org/2000/svg"
 width="995.000000pt" height="1280.000000pt" viewBox="0 0 995.000000 1280.000000"
 preserveAspectRatio="xMidYMid meet">
<metadata>
Created by potrace 1.15, written by Peter Selinger 2001-2017
</metadata>
<g transform="translate(0.000000,1280.000000) scale(0.100000,-0.100000)"
fill="#000000" stroke="none">
<path d="M4450 12776 l0 -26 -260 0 c-228 0 -264 2 -287 17 -24 16 -26 16 -38
0 -11 -16 -138 -17 -1786 -19 l-1774 -3 -55 -26 c-99 -47 -173 -144 -187 -244
-4 -35 -10 -45 -29 -49 -40 -10 -40 -76 1 -76 18 0 25 -48 9 -61 -19 -15 -18
-56 1 -67 14 -7 15 -42 11 -268 -5 -246 -8 -310 -22 -397 -5 -27 -2 -43 10
-56 15 -16 16 -486 18 -5642 l3 -5624 24 -49 c31 -63 86 -118 153 -153 l53
-28 4675 0 4675 0 63 34 c73 40 125 98 153 171 19 49 19 147 19 5654 l0 5603
21 19 c16 15 19 26 15 54 -4 19 -7 59 -9 87 -1 29 -8 58 -15 65 -9 9 -12 77
-12 258 0 234 1 246 20 258 23 14 27 57 6 69 -23 13 -14 47 17 60 44 19 33 65
-18 75 -16 3 -21 14 -26 55 -14 108 -84 203 -188 252 l-56 26 -2057 3 c-2047
2 -2058 2 -2058 22 0 26 -53 27 -95 1 -28 -17 -61 -18 -438 -20 -397 -2 -407
-1 -435 19 -15 11 -44 23 -65 27 -35 5 -37 4 -37 -21z m-3722 -218 c2 -9 -5
-19 -16 -22 -21 -7 -42 -45 -42 -76 0 -10 9 -25 21 -34 15 -10 19 -20 14 -36
-16 -49 29 -100 75 -85 12 4 20 0 24 -13 7 -21 46 -42 76 -42 10 0 26 10 34
22 12 17 18 20 28 10 7 -7 24 -12 39 -12 46 0 80 51 60 89 -9 15 -7 20 9 24
41 11 50 99 12 115 -12 5 -17 18 -17 45 l0 37 1315 0 c993 0 1319 -3 1328 -12
9 -9 2 -16 -27 -29 -64 -28 -131 -145 -131 -226 0 -24 8 -41 26 -58 24 -22 24
-25 9 -42 -9 -10 -26 -34 -38 -53 -26 -40 -57 -49 -93 -25 -50 32 -54 96 -8
117 33 15 51 -1 35 -31 -11 -19 -9 -21 19 -21 23 0 30 4 30 20 0 35 -38 63
-76 57 -19 -3 -34 -4 -34 -2 0 19 19 39 52 56 51 26 67 59 44 94 -37 56 -108
56 -122 -1 -8 -30 16 -60 40 -51 23 9 20 30 -4 24 -25 -6 -36 9 -20 28 16 20
49 19 72 -2 29 -26 22 -51 -19 -71 -46 -21 -53 -29 -53 -67 0 -23 -3 -26 -10
-15 -5 8 -7 23 -4 33 3 10 0 25 -7 34 -7 8 -18 25 -24 37 -6 11 -20 21 -30 22
-11 1 -28 5 -38 9 -11 5 -24 2 -35 -7 -9 -9 -23 -13 -29 -11 -18 7 -28 -26
-15 -47 8 -13 7 -21 -1 -29 -9 -10 -7 -16 9 -30 12 -9 25 -27 28 -39 6 -18 15
-22 46 -22 21 0 42 5 45 10 3 6 13 10 20 10 11 0 13 -8 9 -29 -11 -53 54 -131
109 -131 34 0 74 29 110 78 28 39 43 51 74 57 39 8 38 9 -9 19 -44 10 -58 32
-58 93 0 69 23 118 69 148 29 18 54 24 126 28 56 2 103 11 122 21 42 21 53 20
53 -4 0 -42 60 -89 150 -118 76 -24 85 -30 82 -50 -2 -13 3 -25 12 -28 21 -8
20 -24 0 -24 -12 0 -15 -6 -11 -21 4 -16 -1 -23 -23 -30 -29 -11 -45 -33 -34
-50 3 -5 -6 -9 -20 -9 -30 0 -49 -28 -35 -53 8 -14 5 -19 -16 -27 -36 -14 -43
-39 -16 -61 18 -15 20 -21 10 -37 -18 -29 -4 -55 25 -48 25 6 40 -6 41 -33 0
-23 31 -37 49 -22 9 8 16 19 16 26 0 7 17 15 38 19 47 8 83 38 116 96 20 34
26 40 26 23 0 -12 11 -34 24 -49 l23 -28 19 29 c21 32 25 118 7 149 -10 19
-12 18 -42 -11 l-31 -31 0 49 c0 27 3 49 6 49 17 0 235 -144 245 -161 5 -11 9
-30 7 -42 -4 -26 -38 -37 -38 -12 0 11 -7 15 -22 13 -33 -4 -35 -36 -4 -48 14
-5 26 -17 26 -25 0 -9 6 -18 14 -21 8 -3 16 -14 19 -25 4 -15 14 -19 46 -19
23 0 49 4 59 9 9 5 25 12 36 15 13 5 17 12 13 28 -4 12 -2 28 4 34 7 9 4 19
-10 33 -12 12 -21 23 -21 26 0 3 0 10 0 15 0 6 -11 10 -25 10 -19 0 -26 -7
-31 -27 -10 -48 -13 -53 -29 -53 -18 0 -18 1 -5 35 13 34 -9 83 -48 108 l-27
17 30 -7 c38 -10 102 -10 136 -1 24 7 26 5 26 -18 0 -14 10 -38 22 -52 11 -15
28 -42 36 -60 13 -31 18 -33 55 -31 22 2 45 -2 52 -9 19 -19 55 -14 75 11 10
12 31 23 48 24 16 1 31 7 33 13 2 6 22 31 43 56 21 25 39 54 39 64 0 17 4 18
31 8 16 -6 57 -8 89 -6 l59 4 -34 -23 c-38 -26 -54 -77 -36 -112 10 -18 9 -21
-8 -21 -15 0 -22 10 -28 43 -11 55 -39 61 -69 13 -33 -51 -27 -95 16 -119 19
-11 51 -21 72 -23 29 -4 38 -1 43 15 3 10 12 22 20 25 8 3 15 12 15 20 0 8 14
19 30 25 34 11 40 37 10 46 -23 7 -43 -2 -35 -16 10 -15 -22 -10 -35 6 -10 12
-8 21 6 46 14 23 52 50 137 96 66 35 120 63 122 61 2 -2 1 -24 -2 -49 l-5 -47
-28 31 -27 31 -13 -25 c-20 -37 -18 -110 4 -144 l19 -29 23 28 c13 15 24 35
24 44 0 9 15 -8 33 -38 25 -44 43 -60 84 -80 29 -14 53 -30 53 -37 0 -7 9 -17
21 -23 25 -14 53 5 44 28 -8 21 13 32 46 25 18 -3 28 0 32 11 8 20 -2 46 -17
46 -6 0 2 11 18 23 33 26 31 55 -5 64 -16 5 -19 11 -14 33 7 31 -18 65 -41 56
-8 -3 -14 5 -16 22 -2 18 -10 28 -28 32 -19 5 -24 12 -22 28 2 13 -3 25 -12
28 -20 8 -21 24 -1 24 14 0 19 11 16 37 -2 12 65 36 134 49 45 8 105 59 105
90 0 29 5 30 65 3 26 -12 79 -23 122 -26 121 -10 175 -62 177 -173 1 -67 -20
-100 -64 -100 -42 0 -44 -13 -4 -25 29 -8 44 -21 63 -54 48 -81 112 -106 169
-65 39 29 66 87 52 114 -8 16 -8 20 3 20 8 0 20 -6 26 -14 7 -8 27 -14 46 -14
27 0 39 8 65 40 23 28 29 43 22 50 -8 8 -6 17 4 33 13 20 13 24 -1 35 -9 7
-18 10 -22 7 -3 -4 -11 0 -17 9 -15 20 -95 9 -104 -15 -3 -9 -14 -22 -25 -30
-12 -8 -17 -21 -14 -35 3 -11 1 -30 -3 -41 -7 -15 -9 -10 -9 22 -1 39 -4 44
-41 63 -30 15 -40 26 -40 45 0 28 30 48 63 43 29 -4 36 -38 8 -38 -12 0 -21
-6 -21 -15 0 -18 31 -20 48 -3 19 19 14 42 -12 67 -29 27 -64 23 -96 -9 -38
-38 -22 -77 53 -123 40 -25 35 -43 -10 -39 -30 3 -43 -1 -62 -22 -20 -21 -22
-28 -11 -41 7 -8 21 -15 32 -15 14 0 18 6 16 27 -4 33 21 42 46 18 26 -27 20
-70 -15 -99 -17 -14 -36 -26 -43 -26 -21 0 -64 38 -72 63 -3 12 -16 32 -27 45
-11 12 -15 22 -9 22 28 0 52 40 52 88 0 85 -81 222 -131 222 -20 0 -25 15 -9
25 6 3 10 19 10 36 l0 29 1321 0 c1149 0 1320 -2 1310 -14 -7 -8 -11 -27 -9
-43 2 -20 -4 -33 -19 -46 -13 -10 -23 -27 -23 -37 0 -28 21 -70 35 -70 8 0 12
-15 11 -39 -1 -56 18 -74 73 -68 33 4 48 1 56 -10 22 -30 115 -5 115 31 0 9 8
12 25 8 14 -2 36 3 51 13 23 15 25 22 20 54 -4 30 -1 40 15 55 16 14 20 25 15
48 -7 36 -23 58 -42 58 -9 0 -14 11 -14 31 l0 30 198 -3 199 -3 39 -30 39 -30
-65 -6 c-121 -10 -266 -97 -320 -192 -26 -45 -30 -62 -30 -128 0 -64 -3 -79
-20 -94 -13 -12 -20 -29 -18 -44 2 -21 9 -27 35 -29 40 -4 59 24 42 62 -14 29
3 59 30 54 25 -4 41 11 41 37 0 28 15 41 24 20 7 -19 45 -19 52 0 9 23 29 18
42 -10 13 -27 58 -35 80 -13 8 8 12 9 12 1 0 -6 7 -19 16 -27 14 -15 13 -16
-15 -16 -80 0 -167 -55 -257 -163 -24 -28 -39 -37 -62 -37 -48 0 -60 9 -104
74 -85 128 -210 238 -350 307 -76 39 -85 41 -153 37 -94 -4 -178 -46 -278
-139 -75 -68 -162 -179 -185 -232 -29 -69 -8 -191 52 -289 19 -32 33 -58 31
-58 -2 0 -20 9 -39 21 -61 36 -110 30 -224 -25 -158 -75 -225 -73 -282 11 -34
49 -36 158 -4 217 56 108 204 146 240 61 19 -47 18 -65 -6 -65 -35 0 -80 -29
-80 -50 0 -40 58 -76 111 -68 56 8 76 136 32 210 -36 61 -64 73 -171 73 -81 0
-104 -4 -139 -23 -80 -42 -115 -114 -115 -240 0 -108 16 -158 66 -208 52 -52
106 -69 199 -60 64 6 220 57 232 76 3 4 23 11 45 15 46 8 133 -14 199 -51 24
-13 45 -24 47 -24 1 0 -17 37 -41 83 -61 115 -78 182 -73 281 3 66 10 92 33
134 39 73 74 104 163 148 100 49 197 57 285 24 76 -29 192 -107 249 -168 84
-90 143 -240 172 -444 22 -155 23 -199 4 -228 -9 -14 -42 -65 -73 -114 -31
-50 -78 -115 -103 -145 -83 -102 -161 -298 -162 -406 0 -55 44 -138 110 -205
114 -117 252 -119 368 -7 57 54 83 107 89 176 6 74 -6 102 -67 150 -64 51 -98
53 -134 10 -45 -53 -26 -139 31 -139 29 0 63 25 63 47 0 7 4 13 9 13 12 0 41
-75 41 -107 0 -49 -107 -124 -199 -139 -37 -6 -46 -3 -95 36 -58 44 -106 121
-106 169 0 35 46 204 71 260 11 25 37 68 58 95 21 28 80 122 129 209 120 208
170 273 236 303 28 13 64 24 79 24 37 0 87 -49 87 -85 0 -24 -3 -27 -27 -22
-62 12 -82 -37 -42 -102 18 -31 23 -33 57 -27 33 5 56 22 64 48 2 5 11 6 21 3
16 -7 17 -86 17 -1346 l0 -1339 -27 7 c-46 12 -115 6 -168 -15 -64 -25 -109
-81 -126 -157 -7 -30 -14 -55 -16 -55 -2 0 -21 11 -43 25 -51 32 -81 92 -88
172 -2 35 -8 63 -12 63 -4 0 -13 -21 -20 -47 -7 -27 -16 -52 -20 -56 -7 -8
-40 160 -40 202 0 26 129 166 162 177 26 8 96 -39 104 -70 10 -40 1 -60 -33
-77 l-32 -16 23 -23 c30 -27 57 -21 86 20 67 94 -47 247 -165 220 -21 -5 -51
-18 -66 -29 -36 -27 -39 -26 -39 4 0 14 -9 43 -20 64 -73 144 -440 285 -566
218 -36 -19 -84 -72 -84 -93 0 -22 -16 -16 -28 11 -8 17 -38 38 -96 65 -135
64 -165 123 -111 215 49 84 176 110 236 48 39 -40 43 -65 18 -97 -19 -24 -23
-25 -38 -13 -46 41 -89 22 -77 -35 13 -64 55 -76 113 -32 60 46 80 117 48 178
-9 16 -13 31 -11 33 2 3 24 -4 49 -15 37 -17 50 -30 78 -82 75 -141 185 -156
266 -36 45 66 44 104 -5 155 -62 65 -116 65 -166 -2 -26 -35 -13 -61 33 -65
25 -3 31 0 31 15 0 11 -6 25 -12 32 -11 10 -9 15 6 27 27 19 33 18 63 -12 56
-56 2 -174 -80 -174 -42 0 -67 26 -100 101 -21 48 -31 59 -62 69 -21 7 -54 9
-80 6 -26 -4 -46 -3 -50 4 -3 5 0 10 7 10 7 0 25 6 40 14 23 12 29 12 39 0 6
-8 19 -14 28 -14 25 0 81 38 81 55 0 8 9 15 20 15 12 0 34 7 50 15 24 13 30
22 30 50 0 18 -5 37 -11 40 -7 5 -3 14 10 26 34 32 21 99 -19 99 -16 0 -19 5
-13 31 3 16 19 43 34 59 16 16 27 34 24 42 -4 9 5 13 30 14 22 0 44 9 60 24
22 21 24 29 21 104 -4 95 -10 114 -41 122 -20 5 -23 10 -18 39 11 66 -36 94
-113 65 -21 -9 -31 -7 -46 7 -17 15 -23 16 -61 3 -27 -10 -49 -26 -62 -47 -13
-21 -28 -32 -43 -33 -35 0 -82 -32 -89 -59 -3 -14 -1 -38 5 -55 10 -26 9 -33
-8 -51 -37 -40 -13 -125 35 -125 11 0 14 -7 9 -24 -3 -13 -1 -32 4 -43 6 -10
8 -31 5 -46 -4 -20 -11 -27 -29 -27 -12 0 -35 -10 -50 -23 -23 -20 -26 -28
-19 -53 4 -16 8 -47 9 -69 1 -30 6 -42 21 -49 15 -6 20 -18 20 -45 l0 -36 -37
18 c-33 17 -44 18 -86 7 -71 -17 -153 -85 -188 -155 -26 -54 -27 -60 -15 -104
21 -79 84 -142 199 -199 44 -22 57 -35 77 -77 13 -27 27 -69 31 -93 8 -54 21
-38 30 38 8 70 27 103 77 130 36 20 49 22 146 17 132 -6 186 -25 256 -89 90
-82 98 -102 106 -254 7 -136 26 -224 61 -284 11 -19 26 -52 34 -72 l13 -38
-45 0 c-59 0 -92 -18 -148 -82 -37 -42 -52 -71 -72 -138 -72 -239 -77 -252
-109 -286 -26 -28 -40 -34 -72 -34 -53 0 -120 24 -150 54 -55 55 -150 72 -218
40 -99 -47 -167 -180 -131 -255 19 -40 80 -89 109 -89 31 0 67 39 67 72 0 67
-50 91 -88 43 -13 -16 -23 -22 -27 -15 -16 26 -23 73 -15 96 13 33 92 82 146
90 41 6 48 3 89 -31 25 -20 53 -51 61 -68 36 -68 -8 -245 -88 -358 -25 -35
-73 -113 -108 -173 -91 -161 -131 -210 -191 -235 -56 -25 -79 -21 -109 16 -30
38 -26 53 14 53 37 0 48 14 39 52 -14 57 -57 74 -95 36 -13 -13 -35 -24 -51
-24 -33 -2 -67 -30 -67 -56 0 -13 -7 -18 -28 -18 -40 0 -66 -31 -58 -67 4 -15
7 -43 6 -61 -1 -40 14 -69 39 -77 12 -4 18 -12 14 -21 -9 -23 6 -63 28 -74 15
-8 29 -8 51 -1 25 9 35 8 48 -4 21 -19 34 -19 70 0 18 9 30 24 30 35 0 15 7
20 28 20 49 0 66 20 59 73 -6 42 -5 45 18 51 35 9 90 68 126 134 31 59 31 56
5 -38 -25 -89 -19 -184 19 -306 6 -18 3 -20 -23 -16 -41 6 -108 -26 -172 -83
-30 -26 -77 -58 -104 -71 l-51 -23 54 0 c73 -1 130 28 187 94 26 29 55 56 66
58 33 9 66 -10 94 -55 91 -143 286 -281 400 -282 103 -1 258 111 353 253 32
49 36 61 36 120 -1 55 -7 76 -35 131 -19 36 -36 68 -38 72 -2 3 14 -2 35 -13
54 -28 81 -24 180 23 113 55 162 58 203 11 72 -81 52 -210 -40 -262 -68 -38
-124 -24 -136 34 -5 28 -3 31 27 40 45 14 58 38 35 64 -10 11 -32 23 -48 26
-65 15 -99 -76 -59 -158 29 -61 73 -81 155 -75 76 6 135 35 161 80 l20 33 3
-3275 2 -3274 -22 -46 c-13 -25 -38 -55 -57 -68 l-34 -22 -4643 2 -4643 3 -28
21 c-15 12 -37 36 -48 55 -20 34 -20 54 -22 3374 -1 1865 2 3331 7 3320 5 -11
9 -31 9 -44 2 -42 42 -100 86 -121 50 -24 152 -27 195 -5 53 27 77 145 39 191
-25 30 -109 5 -109 -33 0 -19 28 -42 53 -43 12 0 17 -8 17 -28 0 -39 -17 -52
-71 -52 -57 0 -94 26 -120 84 -46 101 5 212 97 209 18 -1 74 -20 125 -44 96
-44 110 -45 181 -14 14 5 11 -7 -14 -55 -23 -44 -33 -79 -36 -123 -3 -58 -1
-66 35 -122 22 -33 70 -88 107 -123 137 -127 224 -146 356 -77 85 45 202 151
250 225 17 27 41 52 52 55 28 10 70 -11 93 -45 11 -17 40 -45 65 -62 37 -27
55 -33 110 -35 55 -3 61 -1 40 8 -14 6 -35 16 -48 22 -13 6 -50 35 -84 64 -66
57 -113 78 -159 71 -24 -4 -29 -2 -23 11 39 94 45 223 15 320 -10 34 -17 61
-16 61 2 0 19 -28 37 -62 32 -59 94 -118 126 -118 9 0 12 -6 8 -16 -18 -47
-17 -63 4 -84 14 -14 30 -20 45 -17 18 3 25 -1 29 -18 5 -21 43 -45 70 -45 8
0 19 7 26 15 9 11 17 12 30 5 48 -26 99 13 86 65 -5 18 -2 25 9 25 21 0 46 42
45 76 0 16 2 43 6 60 5 26 2 35 -17 48 -13 9 -31 16 -41 16 -9 0 -20 9 -23 21
-7 22 -61 50 -81 42 -6 -2 -23 7 -37 21 -15 14 -33 26 -41 26 -23 0 -48 -44
-44 -77 2 -24 8 -28 33 -29 26 0 30 -4 27 -25 -3 -28 -36 -59 -64 -59 -34 0
-95 38 -132 83 -19 23 -71 105 -115 181 -44 75 -92 151 -105 167 -24 29 -67
145 -81 221 -10 53 9 100 60 147 34 31 53 41 78 41 35 0 127 -41 148 -66 16
-19 15 -74 -1 -105 l-13 -23 -14 27 c-16 31 -53 36 -73 11 -19 -22 -16 -70 5
-94 29 -32 66 -25 115 20 42 39 42 39 38 99 -13 178 -210 263 -338 146 -33
-30 -122 -59 -156 -51 -15 4 -39 20 -54 35 -27 27 -42 65 -100 268 -15 52 -33
87 -66 127 -53 65 -87 86 -144 86 -38 0 -41 2 -35 23 4 12 17 43 31 69 41 78
54 137 61 268 7 142 18 175 84 241 66 66 136 93 257 97 67 3 113 0 132 -8 50
-21 76 -61 84 -127 9 -80 21 -96 29 -39 12 89 45 133 125 172 73 36 147 109
163 162 24 80 -18 163 -113 226 -66 43 -115 53 -156 32 -39 -20 -37 -21 -37
12 0 16 8 34 22 45 18 15 22 28 22 66 -1 27 2 54 5 60 11 16 -40 61 -69 61
-18 0 -25 5 -25 19 0 43 -97 71 -107 31 -5 -19 -6 -19 -25 5 -15 19 -29 25
-59 25 -33 0 -40 -4 -45 -25 -3 -14 -4 -32 0 -40 4 -10 -1 -15 -14 -15 -36 0
-56 -80 -25 -98 13 -7 13 -14 4 -42 -11 -31 -10 -35 15 -57 15 -13 38 -23 52
-23 14 0 24 -6 24 -15 0 -31 80 -64 102 -41 10 9 20 11 29 5 8 -5 25 -9 37 -9
14 0 22 -5 20 -12 -3 -8 -24 -11 -60 -9 -73 3 -92 -8 -124 -72 -32 -64 -62
-97 -86 -97 -54 0 -108 58 -108 116 0 31 35 74 61 74 22 0 44 -26 29 -35 -5
-3 -10 -15 -10 -26 0 -17 6 -20 33 -17 41 4 48 35 15 72 -35 41 -86 45 -126
11 -76 -64 -77 -119 -3 -196 41 -43 52 -49 88 -49 56 0 99 33 142 110 29 51
44 67 74 79 21 7 40 12 42 9 3 -3 -2 -22 -10 -43 -10 -23 -14 -48 -10 -67 9
-38 56 -92 96 -109 29 -12 33 -11 51 11 13 16 18 35 16 59 -3 32 -6 36 -27 33
-14 -1 -32 -9 -41 -17 -15 -14 -19 -13 -33 3 -27 29 -21 70 14 103 75 70 225
10 245 -97 12 -64 -12 -95 -115 -148 -51 -26 -97 -56 -104 -67 -16 -26 -19
-24 -41 16 -43 79 -166 97 -312 46 -190 -66 -314 -168 -314 -260 0 -20 -1 -20
-35 3 -52 36 -97 41 -144 17 -52 -27 -83 -73 -89 -132 -4 -43 -1 -51 26 -79
37 -36 42 -37 72 -5 15 16 19 25 10 25 -21 0 -60 41 -60 63 0 28 66 87 96 87
18 0 45 -21 95 -72 l70 -73 -5 -60 c-3 -33 -10 -85 -17 -115 l-12 -55 -21 60
-20 60 -8 -58 c-11 -86 -39 -141 -87 -171 -22 -14 -42 -26 -44 -26 -3 0 -7 18
-10 40 -15 114 -109 186 -232 178 -36 -2 -68 -7 -72 -11 -12 -13 37 -94 80
-133 40 -37 117 -76 173 -88 l32 -7 -49 -51 c-81 -85 -100 -177 -50 -247 30
-41 106 -89 173 -108 55 -15 56 -16 42 -38 -11 -17 -12 -29 -5 -49 9 -22 8
-26 -7 -26 -9 0 -23 9 -30 20 -18 30 -57 42 -87 28 -35 -16 -43 -53 -17 -87
17 -24 18 -29 5 -46 -9 -13 -16 -16 -21 -9 -9 15 -47 34 -66 34 -29 0 -58 -39
-51 -68 7 -30 41 -61 68 -62 10 0 17 -8 17 -20 0 -13 -7 -20 -20 -20 -25 0
-53 -41 -44 -66 13 -36 37 -54 71 -54 31 0 33 -2 23 -21 -26 -48 23 -107 79
-96 24 5 28 3 24 -12 -3 -10 6 -30 20 -47 19 -22 33 -28 61 -27 20 1 36 -3 36
-8 0 -9 53 -39 70 -39 6 0 22 11 35 25 l25 24 0 -24 c0 -32 47 -68 82 -63 25
4 26 2 21 -23 -8 -42 37 -83 83 -76 19 3 34 2 34 -4 0 -5 -4 -9 -10 -9 -5 0
-17 -11 -26 -25 -14 -21 -15 -30 -5 -52 10 -22 9 -27 -10 -41 -17 -12 -20 -22
-16 -53 5 -35 3 -38 -13 -29 -26 14 -56 12 -69 -4 -10 -12 -18 -11 -50 7 -37
20 -39 21 -66 3 -24 -16 -27 -22 -21 -57 4 -26 2 -39 -5 -39 -7 0 -10 26 -8
83 4 83 5 86 87 250 2 4 -20 -5 -49 -20 -75 -37 -134 -41 -190 -13 -126 65
-266 66 -322 2 -10 -11 -27 -47 -37 -79 l-18 -58 0 143 c0 78 1 142 3 142 1 0
33 -20 69 -45 37 -25 72 -45 76 -45 13 0 40 97 39 139 -1 64 -21 102 -73 138
-26 18 -62 37 -80 41 l-31 8 -2 299 -3 299 38 13 c20 7 49 13 63 13 27 0 39
16 39 49 0 9 9 24 20 34 23 19 27 72 6 80 -9 4 -12 15 -9 31 7 34 -12 56 -48
56 -19 0 -29 5 -29 14 0 15 -31 30 -60 31 -13 0 -15 172 -18 1478 l-2 1478 22
8 c18 6 25 4 33 -13 6 -11 22 -27 37 -35 39 -22 74 -3 89 49 17 55 4 76 -45
73 -33 -2 -36 0 -36 26 0 44 41 81 90 81 103 0 168 -70 329 -353 40 -70 93
-154 118 -188 34 -45 54 -87 78 -162 61 -193 57 -239 -31 -325 -69 -67 -89
-75 -154 -58 -88 23 -170 91 -170 141 0 20 31 95 39 95 3 0 14 -14 23 -30 34
-60 108 -26 108 49 0 31 -7 46 -31 70 -17 17 -35 31 -41 31 -25 0 -81 -36
-118 -76 -35 -38 -40 -49 -40 -92 0 -104 57 -197 154 -252 42 -25 62 -30 116
-30 85 0 131 22 198 93 60 64 102 145 102 197 0 121 -81 308 -190 440 -21 25
-67 92 -102 150 l-65 105 8 90 c13 132 46 287 80 376 54 139 139 231 291 313
125 67 214 70 340 9 105 -50 132 -74 172 -154 32 -64 36 -80 36 -148 0 -88
-36 -205 -88 -290 -18 -28 -32 -53 -32 -56 0 -2 15 4 33 15 50 30 145 60 188
60 22 0 67 -14 111 -35 86 -41 211 -68 271 -59 129 20 190 105 189 263 -2 143
-31 204 -122 249 -46 22 -68 27 -135 27 -66 0 -87 -4 -116 -23 -50 -31 -74
-82 -74 -160 0 -58 3 -66 29 -89 32 -27 62 -26 106 6 49 35 28 83 -40 94 -21
4 -25 10 -23 36 2 50 28 71 86 71 177 0 258 -257 114 -364 -48 -36 -107 -28
-233 32 -124 59 -158 63 -227 29 -25 -13 -43 -19 -40 -13 4 6 16 27 28 46 60
96 81 222 50 296 -19 46 -89 136 -161 206 -123 119 -201 161 -309 162 -65 1
-77 -3 -161 -47 -143 -75 -256 -178 -340 -311 -32 -51 -75 -73 -115 -57 -13 5
-48 36 -77 70 -66 76 -124 111 -196 118 -55 6 -55 6 -38 28 14 18 20 20 44 11
22 -8 31 -7 47 9 12 10 21 24 21 32 0 20 18 16 30 -7 13 -24 33 -26 50 -5 19
23 28 18 32 -17 2 -28 7 -33 28 -33 35 0 57 -31 41 -57 -7 -11 -9 -28 -6 -39
8 -24 50 -35 70 -19 21 18 19 57 -5 70 -17 9 -20 21 -20 87 0 95 -22 145 -90
206 -79 71 -248 141 -296 123 -29 -11 -8 17 27 36 30 16 55 18 224 16 168 -3
190 -5 193 -20z m3157 8 c-36 -12 -37 -13 -15 -19 36 -9 21 -16 -39 -18 -45
-2 -56 2 -79 24 l-27 27 100 -1 c95 -1 98 -2 60 -13z m263 -13 c-4 -36 -51
-71 -72 -54 -13 11 -14 15 -1 35 16 25 11 36 -15 36 -30 0 -45 -27 -32 -55 25
-54 87 -57 140 -7 32 30 42 26 42 -19 0 -10 9 -24 19 -31 10 -6 17 -17 14 -23
-2 -7 3 -19 11 -28 26 -26 18 -28 -24 -7 -22 11 -40 27 -40 35 0 8 -9 19 -19
25 -16 8 -23 6 -34 -11 -13 -18 -19 -19 -55 -9 -48 12 -92 60 -92 99 0 15 3
31 7 34 3 4 40 7 80 7 l74 0 -3 -27z m102 23 c0 -2 -11 -6 -25 -8 -14 -3 -25
-1 -25 3 0 5 11 9 25 9 14 0 25 -2 25 -4z m398 -28 c2 -15 -4 -40 -13 -57 -18
-35 -15 -37 23 -17 15 7 47 17 72 21 40 6 43 5 27 -7 -11 -8 -17 -24 -16 -38
3 -39 0 -70 -8 -68 -12 2 -66 -12 -85 -22 -14 -8 -17 -4 -20 18 -2 19 -9 28
-25 30 -15 2 -23 10 -23 23 0 11 -7 22 -15 25 -10 4 -13 14 -9 30 4 13 2 30
-3 37 -6 6 -13 22 -16 35 -5 22 -3 23 51 20 54 -3 57 -5 60 -30z m624 -3 c3
-29 1 -34 -11 -29 -41 18 -90 27 -113 21 -32 -8 -124 -90 -143 -128 -20 -38
-19 -62 5 -108 18 -36 18 -40 2 -46 -9 -3 -18 -1 -20 4 -2 6 -17 11 -32 11
l-29 0 14 34 c25 59 -8 127 -92 191 -50 38 -84 43 -136 21 l-33 -13 1 38 0 39
291 0 292 0 4 -35z m148 15 c-6 -11 -8 -20 -4 -20 4 0 -1 -9 -12 -21 -14 -16
-16 -24 -7 -39 10 -15 9 -19 -8 -23 -11 -3 -19 -14 -19 -26 0 -14 -6 -21 -20
-21 -20 0 -44 -32 -33 -44 3 -3 1 -6 -5 -6 -7 0 -12 5 -12 11 0 7 -10 9 -25 7
-14 -3 -28 -1 -31 3 -3 5 -13 9 -23 9 -15 0 -17 8 -14 50 2 44 0 52 -20 61
-17 7 -12 8 21 4 24 -3 62 -15 84 -26 38 -20 40 -20 33 -2 -12 28 -18 71 -11
88 4 11 21 15 61 15 53 0 55 -1 45 -20z m343 2 c-3 -14 -11 -17 -35 -14 -29 4
-30 6 -13 18 28 20 54 18 48 -4z m198 -22 c10 -32 10 -45 -1 -65 -16 -31 -53
-56 -97 -65 -27 -7 -35 -4 -44 11 -13 26 -49 25 -56 -1 -3 -12 -23 -30 -44
-41 -39 -19 -53 -13 -24 11 9 7 14 19 11 27 -3 7 1 13 9 13 18 0 37 34 29 53
-10 27 16 29 36 4 44 -55 118 -59 145 -7 13 26 13 30 -1 44 -31 32 -64 13 -42
-24 11 -17 11 -22 -2 -30 -21 -13 -23 -13 -48 10 -16 15 -22 33 -22 60 l0 40
70 0 69 0 12 -40z m292 26 c3 -8 -11 -30 -32 -50 -38 -37 -72 -45 -130 -29
l-23 6 22 12 c21 11 20 12 -19 19 -35 5 -41 10 -41 31 l0 25 109 -1 c80 0 111
-4 114 -13z m-1133 -97 c0 -6 -6 -17 -14 -25 -8 -7 -17 -32 -21 -55 -8 -44 4
-62 34 -52 13 5 14 3 4 -8 -7 -7 -13 -21 -13 -30 0 -17 26 -33 40 -24 4 3 10
-4 13 -15 6 -25 43 -27 69 -3 17 15 18 15 18 -3 0 -23 18 -44 37 -44 7 0 21 9
32 21 l19 21 7 -21 c8 -26 41 -27 57 -2 10 16 13 17 26 5 19 -20 34 -13 50 20
13 25 15 26 31 12 22 -20 26 -20 46 0 10 10 13 24 9 36 -6 21 -6 20 17 0 26
-25 28 -22 -36 -56 -27 -15 -75 -42 -107 -61 l-56 -35 -81 14 c-128 23 -184
58 -230 145 -19 36 -16 85 10 130 22 40 39 53 39 30z m-243 -56 c7 -18 13 -45
13 -61 0 -35 -48 -112 -88 -140 -38 -27 -125 -50 -200 -53 -57 -2 -61 0 -158
66 -100 68 -118 85 -91 85 9 0 18 6 20 13 3 6 6 0 6 -15 1 -36 30 -52 53 -31
19 17 18 17 34 -34 4 -16 40 -17 49 -2 5 6 13 3 22 -10 18 -26 39 -27 55 -2
12 19 12 19 26 0 19 -28 66 -22 70 9 4 26 8 27 28 7 9 -8 24 -15 35 -15 11 0
22 7 25 15 4 8 15 15 25 15 24 0 36 27 21 50 -9 14 -7 16 14 12 27 -5 41 17
28 46 -4 9 -6 23 -5 30 1 8 -2 19 -7 25 -5 7 -12 21 -16 31 -12 33 25 -4 41
-41z m273 -264 c10 -18 1 -32 -40 -64 l-25 -20 18 21 c9 11 17 30 17 42 0 21
-24 52 -41 52 -6 0 -7 5 -4 10 8 13 63 -18 75 -41z m-4879 -21 c-11 -4 -6 -7
13 -7 45 -1 104 -35 179 -101 93 -82 136 -103 203 -98 45 2 53 0 48 -12 -62
-146 -67 -306 -14 -457 10 -29 17 -53 15 -53 -2 0 -20 31 -40 68 -42 80 -99
142 -154 166 l-38 18 16 43 c15 43 15 45 -9 69 -17 19 -34 26 -62 26 -31 0
-38 4 -38 19 0 48 -93 79 -132 44 -17 -15 -20 -15 -28 -3 -9 15 -12 308 -3
323 2 4 17 -3 32 -15 23 -19 25 -24 12 -30z m4546 21 c-10 -6 -22 -20 -27 -32
-8 -21 -9 -21 -9 -1 -1 24 17 44 39 44 12 -1 11 -3 -3 -11z m4903 -152 c0 -90
-3 -166 -6 -169 -3 -4 -14 2 -25 13 -24 24 -56 24 -96 -1 -22 -13 -33 -27 -33
-43 0 -20 -4 -23 -34 -19 -27 3 -40 -2 -61 -22 -22 -22 -25 -32 -20 -59 4 -18
11 -36 16 -41 15 -17 10 -24 -23 -31 -47 -11 -129 -98 -167 -179 -18 -37 -34
-66 -36 -64 -2 2 8 37 23 78 22 64 26 92 25 190 0 95 -4 127 -24 185 l-24 70
55 0 c66 0 111 24 213 114 67 58 93 73 151 86 23 5 27 8 15 16 -11 7 -11 9 4
9 10 0 20 7 23 15 17 43 24 -1 24 -148z m-9426 -392 c-6 -16 -24 -21 -24 -7 0
11 11 22 21 22 5 0 6 -7 3 -15z m9386 -22 c0 -13 -3 -13 -15 -3 -8 7 -15 16
-15 21 0 5 7 6 15 3 8 -4 15 -13 15 -21z m-960 -1558 c0 -14 -4 -25 -9 -25 -4
0 -6 11 -3 25 2 14 6 25 8 25 2 0 4 -11 4 -25z m-27 -55 c-3 -12 -8 -19 -11
-16 -5 6 5 36 12 36 2 0 2 -9 -1 -20z m1027 -1395 c0 -71 -1 -75 -25 -81 -14
-3 -30 -15 -36 -25 -5 -11 -20 -19 -32 -19 -40 0 -61 -23 -54 -58 4 -21 2 -32
-8 -36 -24 -9 -18 -62 8 -83 13 -10 21 -26 19 -36 -6 -28 28 -59 57 -54 14 3
35 -2 48 -10 l23 -15 0 -314 0 -313 -43 -19 c-65 -29 -115 -78 -128 -125 -17
-64 7 -197 35 -197 7 0 41 18 74 40 l62 40 0 -103 0 -102 -20 33 c-57 94 -201
104 -357 25 -62 -31 -108 -28 -196 11 l-55 24 34 -66 c44 -88 68 -182 59 -239
-3 -24 -10 -41 -15 -38 -5 3 -6 20 -3 38 9 61 -48 88 -100 47 -22 -17 -26 -18
-37 -5 -15 18 -71 20 -88 3 -14 -14 -15 -3 -3 27 9 22 -4 55 -26 68 -9 6 -10
13 -3 27 17 31 11 57 -15 78 -32 25 -32 36 0 28 32 -8 81 17 90 45 4 11 4 30
1 43 -5 20 -2 22 29 18 26 -3 40 2 59 22 14 14 26 34 26 45 0 19 2 18 26 -5
28 -29 64 -27 100 7 11 11 35 19 53 19 37 0 81 38 81 70 0 16 6 20 35 20 25 0
44 8 60 25 28 27 31 51 11 81 -14 19 -13 20 15 16 61 -9 106 55 74 104 -8 13
-24 24 -35 24 -35 0 -24 35 16 49 40 14 60 47 50 85 -12 47 -72 58 -111 20
-15 -15 -17 -15 -35 1 -18 16 -18 17 1 36 23 23 25 72 3 93 -8 9 -28 16 -43
16 -27 0 -71 -31 -71 -51 0 -6 -8 -9 -17 -7 -14 3 -17 12 -15 45 3 31 -1 44
-15 52 -16 9 -15 10 9 11 75 1 209 83 243 151 35 67 9 153 -71 239 l-43 46 69
23 c81 26 141 68 190 134 19 26 36 47 37 47 2 0 3 -34 3 -75z m-395 -174 c142
-70 173 -150 91 -239 -33 -38 -75 -54 -136 -55 -66 0 -111 22 -141 69 -25 41
-24 60 6 89 l24 25 25 -25 c14 -14 36 -25 50 -25 48 0 48 85 1 116 -24 15 -29
15 -70 0 -48 -19 -91 -62 -101 -102 -16 -62 30 -147 113 -210 l41 -32 -24 -12
c-13 -8 -24 -17 -24 -22 0 -5 -9 -4 -19 2 -11 5 -28 10 -39 10 -29 0 -72 -38
-72 -65 0 -21 -3 -23 -39 -18 -34 5 -44 1 -68 -23 -15 -16 -34 -27 -40 -26
-26 6 -74 -29 -79 -57 -4 -17 -16 -33 -30 -40 -48 -22 -58 -102 -14 -116 11
-4 18 -10 15 -15 -3 -5 -17 -5 -32 1 -74 28 -143 -74 -79 -117 31 -20 23 -44
-14 -44 -34 0 -80 -41 -80 -71 0 -26 27 -59 47 -59 7 0 13 -4 13 -10 0 -5 -9
-10 -20 -10 -29 0 -70 -44 -70 -74 0 -31 24 -56 56 -56 29 0 33 -26 4 -35 -29
-9 -60 -54 -60 -86 0 -39 32 -69 73 -69 48 0 51 -9 16 -47 -22 -22 -32 -42
-32 -63 0 -36 28 -70 57 -70 19 0 21 -5 18 -39 -3 -33 0 -42 21 -56 32 -20 70
-11 97 23 11 14 23 22 27 18 4 -3 1 -12 -5 -18 -16 -16 -15 -71 0 -86 17 -17
83 -15 98 3 9 11 22 14 41 10 27 -6 83 15 91 33 1 5 21 12 43 16 l40 8 -23
-25 c-32 -34 -127 -84 -187 -97 -65 -15 -135 1 -214 48 -83 49 -153 117 -185
180 -39 77 -74 211 -87 330 l-12 107 53 85 c29 46 77 116 106 155 107 140 154
318 105 401 l-22 37 37 -32 c71 -63 120 -61 187 7 48 49 64 90 87 229 25 142
54 193 150 256 40 27 115 22 185 -12z m-8560 -41 c21 0 121 -96 139 -134 8
-18 20 -67 26 -107 19 -134 38 -186 87 -232 74 -70 105 -72 175 -9 l42 37 -22
-36 c-52 -86 -8 -253 107 -403 25 -34 68 -96 94 -138 l48 -77 -15 -119 c-21
-162 -61 -277 -124 -360 -29 -38 -155 -125 -207 -142 -88 -29 -233 10 -301 81
l-28 29 34 -6 c19 -4 48 -18 64 -32 23 -18 38 -23 62 -19 22 4 37 1 45 -9 16
-19 68 -18 91 3 22 20 23 42 2 71 -20 29 -9 28 28 -3 16 -14 40 -25 52 -25 34
0 59 33 54 70 -4 24 -1 30 14 30 27 0 58 36 58 69 0 19 -10 40 -30 59 -16 17
-30 33 -30 36 0 3 15 6 33 6 49 0 77 24 77 66 0 34 -35 84 -60 84 -24 0 -7 27
23 35 28 9 32 15 35 46 3 30 -2 41 -24 58 -15 11 -33 21 -42 21 -9 0 -5 7 12
21 17 13 26 30 26 49 0 33 -40 70 -75 70 -30 0 -40 27 -15 40 25 13 35 52 21
78 -16 30 -68 48 -93 33 -28 -17 -37 -4 -10 15 28 19 29 67 2 94 -11 11 -24
20 -29 20 -5 0 -11 13 -14 30 -6 29 -53 64 -80 58 -6 -1 -25 10 -40 26 -24 24
-34 27 -63 23 -28 -5 -34 -3 -34 12 0 10 -11 28 -25 41 -20 18 -32 22 -64 17
-28 -3 -44 -1 -52 9 -6 8 -18 14 -26 14 -8 0 5 15 28 33 58 43 105 107 113
151 13 71 -45 143 -123 153 -34 5 -41 2 -56 -20 -9 -15 -15 -40 -13 -59 4 -44
37 -50 73 -14 l26 26 24 -25 c14 -13 25 -32 25 -42 0 -32 -58 -92 -101 -104
-101 -31 -219 42 -219 136 0 37 5 50 35 80 56 55 168 102 213 89 8 -2 20 -4
27 -4z m1037 -1282 c-7 -7 -12 -8 -12 -2 0 14 12 26 19 19 2 -3 -1 -11 -7 -17z
m6288 1 c0 -6 -4 -7 -10 -4 -5 3 -10 11 -10 16 0 6 5 7 10 4 6 -3 10 -11 10
-16z"/>
<path d="M1857 12515 c-16 -8 -40 -12 -56 -9 -44 9 -78 -31 -72 -83 1 -6 -12
-25 -29 -41 -38 -39 -41 -112 -3 -112 10 0 12 -8 8 -34 -4 -19 -4 -43 -1 -54
8 -25 57 -46 85 -37 15 4 21 2 21 -8 0 -19 29 -43 63 -51 21 -5 33 -1 52 18
14 14 27 20 30 15 4 -5 23 -9 44 -9 49 0 74 26 70 73 -3 27 2 40 19 54 12 10
25 32 28 50 5 26 1 36 -20 56 -20 19 -25 31 -21 49 9 37 -24 72 -69 72 -26 0
-37 5 -42 19 -3 10 -21 25 -40 33 -40 17 -33 17 -67 -1z"/>
<path d="M8006 12489 c-14 -11 -26 -26 -26 -33 0 -8 -12 -11 -34 -8 -48 6 -80
-27 -72 -73 5 -27 3 -33 -13 -38 -11 -3 -23 -16 -26 -30 -8 -30 19 -97 39 -97
11 0 13 -9 9 -39 -8 -62 43 -100 97 -71 15 8 24 6 40 -10 11 -11 29 -20 40
-20 33 0 80 29 80 49 0 14 6 17 30 13 18 -3 40 3 56 13 23 15 26 22 22 59 -4
34 -1 45 13 55 37 23 13 121 -29 121 -14 0 -17 7 -14 38 5 52 -17 74 -69 71
-21 -2 -44 2 -51 9 -18 18 -62 14 -92 -9z"/>
<path d="M3738 12432 c-10 -2 -18 -7 -18 -12 0 -4 -11 -11 -25 -14 -39 -10
-89 -106 -55 -106 6 0 9 -3 8 -7 -2 -5 0 -8 4 -8 4 0 14 -9 22 -20 10 -13 15
-15 16 -6 0 7 6 11 14 8 15 -6 56 27 57 46 3 48 17 67 52 67 11 0 17 -8 17
-21 0 -30 32 -20 41 13 5 20 2 31 -12 44 -18 16 -81 24 -121 16z"/>
<path d="M6090 12370 c-16 -13 -19 -25 -14 -44 7 -31 25 -33 42 -6 7 11 17 20
23 20 17 0 38 -32 39 -57 0 -12 10 -33 23 -47 24 -27 67 -44 67 -27 0 6 7 11
16 11 8 0 13 4 10 9 -4 5 -1 11 5 13 28 9 -26 118 -59 118 -6 0 -12 5 -14 11
-2 6 -29 13 -61 14 -43 2 -61 -2 -77 -15z"/>
<path d="M1065 12036 c-26 -26 -31 -51 -16 -76 7 -10 4 -18 -10 -28 -18 -12
-23 -12 -38 2 -23 21 -34 20 -55 -3 -13 -14 -17 -32 -15 -63 4 -60 -7 -88 -36
-88 -14 0 -29 -9 -35 -21 -13 -24 -5 -73 16 -90 21 -17 18 -59 -5 -59 -29 0
-44 -25 -36 -60 7 -33 47 -66 66 -55 22 15 27 -18 7 -46 -19 -25 -19 -31 -8
-59 14 -35 42 -54 68 -46 24 8 60 -49 37 -58 -24 -9 -19 -69 8 -94 29 -28 42
-28 61 0 21 30 42 10 38 -36 -5 -55 58 -86 104 -51 30 23 44 18 44 -14 0 -30
38 -71 66 -71 22 0 44 30 44 61 0 22 5 29 19 29 15 0 21 -8 23 -31 4 -41 34
-61 53 -36 7 10 10 27 7 39 -4 18 -2 20 16 16 12 -4 22 -5 22 -4 0 2 -27 24
-60 51 -49 38 -59 50 -49 61 20 24 -15 64 -56 64 -24 0 -35 5 -35 15 0 8 7 15
15 15 8 0 18 12 21 27 6 21 2 31 -18 47 -30 26 -26 52 11 59 19 4 32 16 41 37
12 28 11 34 -9 61 -21 29 -21 29 -1 29 57 0 82 91 35 128 -31 25 -31 29 0 58
36 33 42 70 17 102 -15 21 -28 27 -55 26 -42 -1 -50 12 -35 54 24 62 -45 109
-92 62 -24 -24 -80 -18 -80 9 0 24 -21 48 -47 56 -17 4 -29 -1 -48 -19z"/>
<path d="M8807 12022 c-10 -10 -17 -28 -17 -40 0 -18 -6 -22 -30 -22 -17 0
-43 9 -59 20 -53 40 -111 -14 -82 -76 15 -34 5 -47 -30 -39 -22 5 -34 1 -54
-19 -34 -34 -32 -70 5 -108 37 -36 37 -41 4 -62 -21 -15 -25 -23 -22 -59 2
-33 9 -45 33 -62 28 -19 29 -22 18 -47 -18 -36 -2 -77 37 -91 39 -15 44 -32
14 -51 -30 -20 -32 -60 -3 -80 25 -17 16 -40 -11 -31 -40 13 -79 -30 -60 -64
8 -15 -1 -25 -50 -61 -65 -47 -72 -55 -39 -47 17 5 20 2 16 -15 -8 -28 2 -48
22 -48 24 0 41 20 41 47 0 16 6 23 20 23 15 0 20 -7 20 -28 0 -34 16 -52 47
-52 32 0 63 34 63 70 0 33 19 40 40 15 7 -8 27 -15 45 -15 40 0 69 30 63 64
-3 16 1 31 12 41 16 14 18 14 23 -5 7 -26 41 -26 67 0 23 23 26 72 6 89 -12
10 -12 16 2 41 13 23 22 28 42 23 51 -10 88 69 51 106 -25 25 -17 46 18 46 36
0 68 47 55 82 -6 17 -18 29 -32 31 -26 4 -31 42 -8 61 38 32 18 119 -24 108
-24 -6 -39 33 -32 84 2 20 -1 46 -7 58 -13 23 -50 28 -68 10 -8 -8 -17 -8 -32
0 -17 10 -19 16 -11 31 32 59 -49 121 -93 72z"/>
<path d="M2130 11448 c-20 -56 -28 -141 -19 -197 6 -43 16 -63 45 -92 57 -58
126 -91 205 -97 67 -5 68 -4 75 22 9 39 -13 143 -44 199 -32 59 -117 139 -183
173 -27 13 -53 24 -58 24 -5 0 -14 -15 -21 -32z"/>
<path d="M7735 11437 c-74 -39 -154 -117 -183 -178 -26 -54 -46 -152 -38 -185
6 -22 12 -24 67 -24 69 0 112 16 181 67 61 44 80 85 80 173 1 64 -25 180 -40
180 -4 0 -34 -15 -67 -33z"/>
<path d="M1700 11425 c-7 -8 -19 -15 -27 -15 -7 0 -17 -8 -20 -17 -4 -9 -15
-25 -25 -35 -17 -17 -17 -21 -3 -48 16 -31 42 -40 51 -16 13 34 94 0 94 -39 0
-8 8 -15 17 -15 14 0 13 -3 -6 -16 -15 -11 -21 -23 -18 -35 3 -12 -2 -23 -14
-29 -10 -6 -19 -17 -19 -25 0 -8 -7 -15 -16 -15 -18 0 -74 -53 -74 -70 0 -7
-10 -20 -22 -30 -19 -15 -21 -22 -12 -37 9 -14 7 -21 -9 -34 -25 -19 -17 -49
13 -49 24 0 25 -8 4 -31 -9 -10 -14 -25 -11 -34 7 -17 42 -20 52 -5 11 19 25
10 25 -15 0 -36 28 -44 51 -16 16 20 20 21 25 7 3 -9 14 -16 23 -15 29 1 76
35 79 57 2 12 10 22 18 22 8 0 18 8 21 18 4 9 15 24 25 32 9 8 20 32 24 52 5
30 3 39 -10 44 -15 6 -14 8 6 18 31 15 36 46 9 53 -26 7 -27 15 -1 31 24 15
26 38 4 50 -14 8 -14 12 -3 30 11 17 10 23 -1 37 -7 9 -20 13 -28 10 -10 -3
-12 -1 -8 10 3 8 9 21 12 29 7 18 -24 48 -45 41 -13 -4 -16 2 -16 26 0 21 -7
35 -20 43 -11 6 -24 17 -28 24 -12 18 -34 15 -51 -9 l-14 -21 -4 23 c-4 28
-30 36 -48 14z"/>
<path d="M8207 11423 c-4 -3 -7 -15 -7 -25 0 -17 -1 -17 -20 2 -20 20 -50 17
-50 -5 0 -8 -10 -15 -22 -17 -19 -2 -23 -9 -23 -35 0 -27 -4 -33 -21 -33 -33
0 -49 -25 -36 -55 10 -22 9 -25 -7 -25 -26 0 -35 -29 -16 -50 14 -16 14 -18
-5 -23 -25 -7 -26 -32 0 -54 19 -17 19 -17 0 -30 -26 -18 -25 -38 2 -57 13 -9
17 -16 9 -16 -10 0 -12 -10 -7 -42 5 -32 17 -53 46 -80 21 -20 40 -44 42 -55
2 -10 12 -19 23 -21 11 -3 24 -10 28 -18 11 -20 35 -17 49 5 11 18 12 18 28
-2 22 -26 50 -16 50 18 0 14 5 25 10 25 6 0 10 -4 10 -9 0 -15 32 -22 46 -10
18 15 18 24 -2 44 -9 9 -15 17 -13 18 36 19 43 25 46 34 2 6 -3 17 -11 25 -8
9 -12 25 -9 42 5 22 1 28 -16 33 -14 4 -21 13 -21 29 0 14 -7 27 -17 31 -10 4
-24 15 -32 26 -7 10 -19 16 -27 13 -8 -3 -14 1 -14 9 0 8 -9 20 -20 28 -11 8
-17 16 -14 20 11 11 -7 47 -24 47 -16 1 -15 2 1 11 9 5 17 17 17 24 0 27 36
53 64 48 14 -3 29 -9 32 -14 12 -20 40 -8 51 21 10 27 8 33 -20 65 -17 19 -35
35 -40 35 -4 0 -15 7 -23 15 -17 16 -27 19 -37 8z"/>
<path d="M475 11116 c-56 -14 -108 -37 -145 -66 l-25 -19 39 -40 c49 -50 118
-80 201 -88 56 -5 71 -3 118 21 52 25 147 113 147 136 0 16 -62 39 -147 56
-88 17 -121 17 -188 0z"/>
<path d="M9260 11099 c-59 -17 -120 -41 -120 -49 0 -15 61 -84 99 -112 64 -46
111 -59 183 -47 83 13 137 38 183 85 l38 38 -34 28 c-68 57 -243 86 -349 57z"/>
<path d="M1305 10896 c-36 -15 -111 -95 -125 -132 -6 -14 -10 -46 -10 -71 0
-43 4 -51 48 -93 37 -35 65 -52 119 -69 82 -26 115 -55 144 -127 l19 -49 -3
72 c-4 107 -27 133 -151 168 -75 22 -106 51 -106 103 0 69 72 142 140 142 42
0 90 -36 90 -67 0 -45 -12 -56 -43 -42 -54 25 -76 -17 -34 -66 20 -24 25 -26
50 -14 82 37 88 162 10 215 -66 45 -99 51 -148 30z"/>
<path d="M8525 10871 c-50 -30 -85 -78 -85 -117 0 -42 22 -87 52 -108 35 -25
57 -19 75 19 15 31 15 37 2 50 -12 12 -18 13 -41 1 -50 -26 -69 41 -23 84 50
47 155 17 189 -54 41 -86 10 -134 -113 -174 -108 -35 -124 -54 -129 -155 l-3
-72 30 62 c31 64 55 87 106 99 37 9 102 40 135 66 84 66 81 166 -9 261 -54 59
-128 74 -186 38z"/>
<path d="M1034 10435 c-11 -17 -15 -37 -11 -60 5 -30 3 -35 -13 -35 -33 0 -48
-38 -48 -127 -1 -77 1 -84 25 -103 14 -11 41 -20 59 -20 19 0 33 -3 33 -7 -6
-39 33 -78 88 -88 37 -7 53 5 63 46 7 31 8 31 9 7 2 -63 113 -95 148 -42 13
21 15 32 6 55 -10 27 -10 29 12 29 50 0 73 82 35 120 -16 16 -18 25 -10 40 32
60 -9 120 -81 120 -22 0 -38 3 -37 8 14 51 -114 112 -140 67 -7 -14 -12 -14
-45 0 -51 21 -74 19 -93 -10z"/>
<path d="M8670 9109 c0 -15 -5 -18 -24 -13 -27 6 -44 -12 -27 -29 17 -17 13
-29 -6 -23 -10 3 -24 2 -32 -3 -17 -11 -7 -41 14 -41 18 0 19 -12 3 -28 -8 -8
-8 -15 2 -27 7 -8 15 -13 18 -10 3 3 10 -5 17 -18 6 -12 17 -21 24 -19 7 1 18
-4 25 -12 6 -9 31 -17 56 -20 63 -5 73 -9 89 -29 7 -10 19 -16 26 -13 9 3 12
-5 9 -27 -1 -18 -4 -34 -5 -37 -1 -3 -1 -8 0 -12 0 -4 -17 -11 -39 -14 -33 -5
-40 -11 -40 -29 0 -34 26 -49 84 -50 42 0 51 3 48 17 -2 12 3 15 18 11 13 -4
22 1 26 13 3 11 10 27 16 38 7 14 6 22 -5 34 -14 13 -13 17 6 33 l22 19 -22
19 c-20 16 -20 20 -6 34 17 17 10 37 -14 37 -13 0 -13 3 -3 15 10 12 10 18 0
30 -7 8 -18 15 -25 15 -6 0 -11 10 -11 23 1 15 -5 23 -21 25 -15 2 -20 8 -16
18 6 15 -28 54 -50 58 -7 1 -18 5 -25 10 -7 4 -19 5 -27 3 -7 -3 -16 0 -18 7
-3 8 -22 14 -46 14 -34 1 -41 -3 -41 -19z"/>
<path d="M1160 9014 c-7 -7 -17 -11 -25 -8 -7 3 -16 1 -20 -5 -3 -6 -13 -11
-21 -11 -23 0 -57 -37 -50 -55 3 -9 1 -15 -7 -14 -32 4 -39 -1 -33 -26 5 -21
3 -25 -15 -25 -17 0 -20 -5 -17 -24 3 -15 0 -27 -8 -30 -17 -7 -18 -33 -1 -40
8 -3 7 -8 -5 -16 -22 -13 -24 -50 -3 -50 8 0 15 -4 15 -10 0 -5 -4 -10 -10
-10 -12 0 -14 -33 -3 -44 4 -4 8 -15 8 -24 0 -11 8 -17 23 -16 15 0 21 -5 20
-15 -3 -13 7 -16 50 -15 60 2 69 7 74 44 2 19 -2 25 -17 26 -11 1 -24 3 -30 4
-5 1 -13 2 -17 1 -5 0 -8 7 -9 17 0 9 -2 29 -4 44 -2 15 -1 27 3 27 21 -3 32
3 32 16 0 8 8 15 18 16 80 5 108 11 120 26 7 10 15 17 17 16 13 -7 25 -1 25
12 0 8 7 15 15 15 21 0 30 27 16 44 -9 11 -7 15 10 19 29 8 21 43 -9 40 -19
-2 -21 1 -15 29 6 29 5 31 -20 24 -19 -4 -26 -2 -29 11 -4 21 -62 27 -78 7z"/>
<path d="M8230 8860 c-11 -11 -20 -29 -20 -40 0 -32 -28 -35 -55 -6 -28 30
-75 35 -99 10 -18 -18 -21 -65 -6 -80 8 -8 5 -20 -7 -42 -16 -28 -22 -31 -53
-26 -46 7 -73 -13 -73 -55 0 -39 20 -61 64 -70 30 -6 34 -11 41 -50 22 -132
181 -264 349 -292 157 -27 382 13 483 85 53 38 74 65 136 182 38 72 47 82 79
90 63 16 70 99 10 124 -27 11 -33 11 -57 -7 -21 -16 -27 -29 -28 -59 0 -33 -5
-42 -33 -57 -29 -18 -33 -18 -50 -3 -10 9 -27 16 -38 16 -23 0 -53 -30 -53
-53 0 -10 -8 -17 -20 -17 -15 0 -20 7 -20 25 0 37 -40 54 -74 32 -35 -23 -57
-13 -49 24 11 55 -49 109 -100 90 -21 -8 -22 -7 -19 28 3 32 -1 42 -28 64 -36
31 -66 34 -98 11 -27 -19 -39 -13 -47 26 -13 61 -94 91 -135 50z"/>
<path d="M1557 8770 c-14 -11 -27 -33 -29 -48 -3 -29 -4 -29 -80 -16 -31 5
-41 2 -63 -21 -21 -20 -26 -34 -23 -60 3 -30 2 -32 -17 -25 -50 19 -106 -35
-92 -89 6 -26 -27 -45 -44 -25 -7 8 -23 14 -37 12 -25 -3 -34 -14 -47 -53 -7
-20 -7 -20 -18 -1 -18 29 -55 66 -67 66 -5 0 -19 -9 -29 -19 -18 -18 -19 -18
-47 0 -23 14 -29 27 -30 55 -1 44 -23 67 -63 67 -41 0 -61 -19 -61 -58 0 -36
26 -65 58 -65 16 0 31 -20 68 -90 62 -117 90 -150 162 -188 87 -46 177 -65
317 -64 99 0 130 4 180 22 79 30 157 82 196 131 33 42 69 125 69 160 0 12 4
17 11 14 18 -12 67 16 79 45 20 49 -24 93 -77 76 -23 -7 -60 51 -43 68 15 15
12 52 -6 70 -22 22 -70 20 -94 -4 -23 -23 -50 -26 -50 -6 0 7 -9 25 -21 40
-25 32 -66 34 -102 6z"/>
<path d="M8247 7649 c-56 -13 -115 -46 -134 -75 -16 -25 -16 -27 8 -45 40 -31
119 -53 189 -52 68 1 181 31 187 49 6 17 -75 94 -120 115 -45 20 -71 22 -130
8z"/>
<path d="M1513 7609 c-40 -20 -113 -89 -113 -108 0 -15 124 -44 190 -44 67 0
157 30 182 60 28 34 -106 113 -191 113 -14 0 -45 -9 -68 -21z"/>
<path d="M544 6706 c-4 -10 -17 -12 -49 -9 -37 5 -45 2 -55 -17 -6 -12 -9 -32
-6 -44 4 -15 -1 -25 -14 -34 -24 -15 -27 -64 -5 -82 8 -7 15 -25 15 -41 0 -30
23 -49 58 -49 11 0 26 -10 34 -21 15 -23 37 -25 116 -13 45 7 68 31 59 65 -3
12 0 19 9 19 30 0 48 85 20 96 -10 4 -13 15 -9 38 6 39 -14 59 -57 58 -19 0
-30 4 -30 13 0 30 -76 48 -86 21z"/>
<path d="M9318 6678 c-13 -13 -33 -24 -46 -25 -38 -3 -54 -23 -50 -61 3 -25
-1 -36 -14 -43 -26 -14 -22 -56 7 -85 14 -14 25 -36 25 -49 0 -35 28 -58 61
-51 16 3 31 1 34 -4 14 -23 95 -3 95 24 0 7 12 13 29 13 39 0 61 19 61 53 0
15 7 33 15 40 21 18 19 66 -5 90 -11 11 -17 26 -14 33 2 7 0 26 -6 42 -10 26
-13 27 -56 22 -33 -3 -47 -1 -51 9 -8 22 -60 17 -85 -8z"/>
</g>
</svg>
